<svg xmlns="http://www.w3.org/2000/svg" xmlns:xlink="http://www.w3.org/1999/xlink" data-name="Layer 1" width="693" height="528" viewBox="0 0 693 528"><path d="M946.5,469.5V691.31A22.71737,22.71737,0,0,1,923.81,714H753.67l1.58-2L944.5,472.04Z" transform="translate(-253.5 -186)" fill="#f2f2f2"/><path d="M524.3118,391.368H328.943a6.036,6.036,0,0,0,0,12.072H524.3118a6.036,6.036,0,0,0,0-12.072Z" transform="translate(-253.5 -186)" fill="#e6e6e6"/><path d="M389.51753,357.52356H328.943a6.036,6.036,0,0,0,0,12.072h60.57458a6.036,6.036,0,0,0,0-12.072Z" transform="translate(-253.5 -186)" fill="#e6e6e6"/><path d="M923.81,186H276.19a22.71737,22.71737,0,0,0-22.69,22.69V691.31A22.71737,22.71737,0,0,0,276.19,714H923.81a22.71737,22.71737,0,0,0,22.69-22.69V208.69A22.71737,22.71737,0,0,0,923.81,186ZM944.5,691.31A20.69,20.69,0,0,1,923.81,712H276.19a20.69,20.69,0,0,1-20.69-20.69V343.67554A155.67554,155.67554,0,0,1,411.17554,188H923.81a20.69,20.69,0,0,1,20.69,20.69Z" transform="translate(-253.5 -186)" fill="#e6e6e6"/><path d="M883.39049,273.26853H316.66a1,1,0,0,1,0-2H883.39049a1,1,0,0,1,0,2Z" transform="translate(-253.5 -186)" fill="#e6e6e6"/><ellipse cx="91.51486" cy="48.60301" rx="8.45661" ry="8.64507" fill="#e6e6e6"/><ellipse cx="120.72861" cy="48.60301" rx="8.45661" ry="8.64507" fill="#e6e6e6"/><ellipse cx="149.94237" cy="48.60301" rx="8.45661" ry="8.64507" fill="#e6e6e6"/><path d="M436.75379,241.4358a.9967.9967,0,0,1-.71485-.30078l-5.70605-5.833a.99954.99954,0,0,1,0-1.39844l5.70605-5.83251a1,1,0,1,1,1.42969,1.39843l-5.022,5.1333,5.022,5.13379a1,1,0,0,1-.71484,1.69922Z" transform="translate(-253.5 -186)" fill="#e6e6e6"/><path d="M446.34217,241.4358a1,1,0,0,1-.71485-1.69922l5.02149-5.13379-5.02149-5.1333a1,1,0,0,1,1.42969-1.39843l5.70557,5.83251a.99954.99954,0,0,1,0,1.39844l-5.70557,5.833A.9967.9967,0,0,1,446.34217,241.4358Z" transform="translate(-253.5 -186)" fill="#e6e6e6"/><path d="M832.852,226.95884h-10.61a2.18935,2.18935,0,0,0-2.19,2.19v10.62a2.18936,2.18936,0,0,0,2.19,2.19h10.61a2.19791,2.19791,0,0,0,2.2-2.19v-10.62A2.1979,2.1979,0,0,0,832.852,226.95884Z" transform="translate(-253.5 -186)" fill="#e6e6e6"/><path d="M806.852,226.95884h-10.61a2.18935,2.18935,0,0,0-2.19,2.19v10.62a2.18936,2.18936,0,0,0,2.19,2.19h10.61a2.19791,2.19791,0,0,0,2.2-2.19v-10.62A2.1979,2.1979,0,0,0,806.852,226.95884Z" transform="translate(-253.5 -186)" fill="#e6e6e6"/><path d="M857.352,227.45884h-10.61a2.18935,2.18935,0,0,0-2.19,2.19v10.62a2.18936,2.18936,0,0,0,2.19,2.19h10.61a2.19791,2.19791,0,0,0,2.2-2.19v-10.62A2.1979,2.1979,0,0,0,857.352,227.45884Z" transform="translate(-253.5 -186)" fill="#e6e6e6"/><path d="M642.4303,231.49881h-84.81a2.67,2.67,0,1,0,0,5.34h84.81a2.67,2.67,0,0,0,0-5.34Z" transform="translate(-253.5 -186)" fill="#e6e6e6"/><path d="M415.10743,596.44634l-50.717-1.60323c-7.03419-.22236-14.94447-.211-19.96166,3.42421-5.6943,4.12585-4.83213,11.43535-.10431,16.17646s12.277,7.44976,19.68637,9.652c39.36385,11.7,82.92866,14.07521,125.229,11.42782s83.73-10.13147,124.95545-17.59027c3.91-.70743,8.3414-1.7253,9.93587-4.44631,1.54247-2.63224-.47577-5.80651-3.61075-7.50776s-7.10942-2.27452-10.94329-2.78084a1027.70791,1027.70791,0,0,0-209.50054-5.976" transform="translate(-253.5 -186)" fill="#222831"/><path d="M506.23,557.44v-12c-8.70812.12331-39.87043-.08886-48,.00027-.605,41.94091-4.31337,33.72515,30.04795,33.88847a5.97483,5.97483,0,0,1,5.95226,5.96665l0,.18a5.965,5.965,0,0,1-5.96511,5.96462H458.23v12h48c.0674-.04016-.04859-11.58721.00015-12,2.02955-34.76507-1.98621-22.26148-31.16579-23.65566a5.0949,5.0949,0,0,1-4.83453-5.09462l0-.1499a5.1001,5.1001,0,0,1,5.09983-5.09981Z" transform="translate(-253.5 -186)" fill="#EEEEEE"/><path d="M565.23,557.44v-12c-8.70812.12331-39.87043-.08886-48,.00027-.61022,42.30528-4.378,33.57862,30.95215,33.89466a5.1,5.1,0,0,1,5.04814,5.09957c-.00006.63012-.00011,1.27547-.00015,1.90717a5.0988,5.0988,0,0,1-5.09982,5.09833H517.23v12h48c.0674-.04016-.04859-11.58721.00015-12,2.02955-34.76507-1.98621-22.26148-31.16579-23.65566a5.0949,5.0949,0,0,1-4.83453-5.09462l0-.1499a5.1001,5.1001,0,0,1,5.09983-5.09981Z" transform="translate(-253.5 -186)" fill="#EEEEEE"/><path d="M444.23,557.44v-12h-48c-.034,10.70325.0245,39.0319-.00007,49.99987-9.40881,15.92872,44.04243,4.90065,48.00271,8.00441C444.23,603.44,444.23,591.44,444.23,591.44c-36.5211-.19074-37.43887,6.6459-36.264-26.42981a7.84378,7.84378,0,0,1,7.83373-7.57093C426.358,557.44,444.23,557.44,444.23,557.44Z" transform="translate(-253.5 -186)" fill="#EEEEEE"/><path d="M539.10743,453.11245l-50.717-1.33642c-7.03419-.18536-14.94447-.17591-19.96166,2.85435-5.6943,3.43922-4.83213,9.53228-.10431,13.48439s12.277,6.21,19.68637,8.04575c39.36385,9.75291,82.92866,11.73282,125.229,9.526s83.73-8.4454,124.95545-14.66291c3.91-.5897,8.3414-1.43818,9.93587-3.70636,1.54247-2.19419-.47577-4.84019-3.61075-6.25832s-7.10942-1.896-10.94329-2.31806a1231.4445,1231.4445,0,0,0-209.50054-4.98149" transform="translate(-253.5 -186)" fill="#222831"/><path d="M530.22986,400.44c-.81725,18.52643,5.99213,24.3577-17.501,21.99778-1.58724-11.0521,6.46193-26.38959-11.99874-22.49565,3.69817,8.01754-10.3027,68.844,11.99588,57.99455,1.25236-18.27481-7.00207-26.29029,17.50448-23.49444,1.96518,11.297-7.2074,27.92118,11.99857,23.996C538.53142,450.41692,552.53242,389.596,530.22986,400.44Z" transform="translate(-253.5 -186)" fill="#EEEEEE"/><path d="M653.22986,400.44c1.64714,1.01689-15.09043,18.72384-15.45157,20.1747-.50211-1.23824-16.47736-18.56236-14.5483-20.174-22.22954-10.985-8.37541,50.19481-12.00424,58.002.00411-.00271,12.00411-.00271,12.00411-.00271V420.44177c16.86715,22.74983,13.73491,18.92152,30.00031-1.11688L653.22986,458.44c22.2288,10.98872,8.37573-50.19873,12.00412-58.0027C665.22986,400.44,653.22986,400.44,653.22986,400.44Z" transform="translate(-253.5 -186)" fill="#EEEEEE"/><path d="M600.22986,400.44h-48c-2.82037,16.82193,6.50508,11.1801,18.00167,11.99963L570.22986,458.44h12v-46C593.67321,411.66182,603.08577,417.18779,600.22986,400.44Z" transform="translate(-253.5 -186)" fill="#EEEEEE"/><path d="M687.22986,446.44a128.27936,128.27936,0,0,1,0-46h-12c.06918,7.60291-.02139,38.28212-.01434,52.31169a5.71,5.71,0,0,0,5.7058,5.71268c12.08981.016,35.17-.07316,42.30866-.02419L723.22986,446.44Z" transform="translate(-253.5 -186)" fill="#EEEEEE"/><path d="M380.68115,448.44H331.907a9,9,0,0,0,0,18h48.77419a9,9,0,0,0,0-18Z" transform="translate(-253.5 -186)" fill="#e6e6e6"/></svg>